HIERARCHY
ROOT Hips
{
	OFFSET -21.947001 39.810204 44.525997
	CHANNELS 6 Xposition Yposition Zposition Zrotation Xrotation Yrotation
	JOINT Chest
	{
		OFFSET -0.201599 0.334099 6.453201
		CHANNELS 6 Xposition Yposition Zposition Zrotation Xrotation Yrotation
		JOINT Chest2
		{
			OFFSET 0.000000 0.000000 3.568001
			CHANNELS 6 Xposition Yposition Zposition Zrotation Xrotation Yrotation
			JOINT Neck
			{
				OFFSET 0.000000 0.000000 8.296402
				CHANNELS 6 Xposition Yposition Zposition Zrotation Xrotation Yrotation
				JOINT Head
				{
					OFFSET 0.000000 0.000000 2.173901
					CHANNELS 6 Xposition Yposition Zposition Zrotation Xrotation Yrotation
					End Site
					{
						OFFSET 0.000000 0.000000 7.891998
					}
				}
			}
			JOINT LeftCollar
			{
				OFFSET 1.927601 0.221401 6.049000
				CHANNELS 6 Xposition Yposition Zposition Zrotation Xrotation Yrotation
				JOINT LeftShoulder
				{
					OFFSET 4.959700 0.000000 0.000000
					CHANNELS 6 Xposition Yposition Zposition Zrotation Xrotation Yrotation
					JOINT LeftElbow
					{
						OFFSET 0.000000 0.000000 -8.654202
						CHANNELS 6 Xposition Yposition Zposition Zrotation Xrotation Yrotation
						JOINT LeftWrist
						{
							OFFSET 0.000000 0.000000 -13.864101
							CHANNELS 6 Xposition Yposition Zposition Zrotation Xrotation Yrotation
							End Site
							{
								OFFSET 0.000000 0.000000 -2.173901
							}
						}
					}
				}
			}
			JOINT RightCollar
			{
				OFFSET -3.155701 -0.764999 6.687801
				CHANNELS 6 Xposition Yposition Zposition Zrotation Xrotation Yrotation
				JOINT RightShoulder
				{
					OFFSET -3.592899 0.000000 0.000000
					CHANNELS 6 Xposition Yposition Zposition Zrotation Xrotation Yrotation
					JOINT RightElbow
					{
						OFFSET 0.000000 0.000000 -10.352398
						CHANNELS 6 Xposition Yposition Zposition Zrotation Xrotation Yrotation
						JOINT RightWrist
						{
							OFFSET 0.000000 0.000000 -12.750301
							CHANNELS 6 Xposition Yposition Zposition Zrotation Xrotation Yrotation
							End Site
							{
								OFFSET 0.000000 0.000000 -2.173901
							}
						}
					}
				}
			}
		}
	}
	JOINT LeftHip
	{
		OFFSET 2.460600 -0.518101 -2.735500
		CHANNELS 6 Xposition Yposition Zposition Zrotation Xrotation Yrotation
		JOINT LeftKnee
		{
			OFFSET 0.000000 -0.000004 -17.005899
			CHANNELS 6 Xposition Yposition Zposition Zrotation Xrotation Yrotation
			JOINT LeftAnkle
			{
				OFFSET 0.000000 0.000000 -19.194401
				CHANNELS 6 Xposition Yposition Zposition Zrotation Xrotation Yrotation
				End Site
				{
					OFFSET 0.000000 -8.134600 0.000000
				}
			}
		}
	}
	JOINT RightHip
	{
		OFFSET -3.115499 -0.679600 -2.320301
		CHANNELS 6 Xposition Yposition Zposition Zrotation Xrotation Yrotation
		JOINT RightKnee
		{
			OFFSET 0.000000 -0.000004 -17.680401
			CHANNELS 6 Xposition Yposition Zposition Zrotation Xrotation Yrotation
			JOINT RightAnkle
			{
				OFFSET 0.000000 0.000000 -16.993797
				CHANNELS 6 Xposition Yposition Zposition Zrotation Xrotation Yrotation
				End Site
				{
					OFFSET 0.000000 -8.842300 0.000000
				}
			}
		}
	}
}
MOTION
Frames: 6
Frame Time: 0.041667
-32.124100 25.245302 45.513992 1408.226000 0.406751 1.965696 -0.201604 0.334095 6.453204 0.677820 4.010308 -2.506259 -0.000009 -0.000001 3.567995 1.173021 -5.714276 -0.600772 -0.000001 0.000003 8.296400 -26.512718 14.302771 10.482741 -0.000002 0.000005 2.173905 -1.003646 -1.674965 -3.814977 1.927605 0.221408 6.049002 -12.505899 -1.201911 -10.382401 4.959704 0.000001 0.000000 39.377543 -11.273560 -109.878503 0.000010 0.000004 -8.654202 58.874359 -2.670247 2.368899 0.000000 0.000001 -13.864096 991.243825 -161.622876 225.058927 -3.155706 -0.764996 6.687806 10.642816 -10.052236 85.305532 -3.592912 0.000001 0.000006 -39.332061 -48.454059 58.156233 -0.000002 0.000005 -10.352400 -76.632209 -105.617373 -42.134474 0.000003 -0.000003 -12.750305 -627.196983 -6.580187 36.489005 2.460598 -0.518106 -2.735499 -13.036089 0.865086 -0.389055 -0.000004 0.000000 -17.005903 -8.722415 6.949333 11.965677 -0.000005 0.000004 -19.194397 28.992005 21.073328 0.456853 -3.115499 -0.679606 -2.320298 -134.035072 -27.118402 -103.137400 -0.000001 -0.000018 -17.680393 -198.660177 -6.845471 -106.664701 0.000002 -0.000001 -16.993797 290.783857 30.411930 -53.144937
-32.127800 25.256605 45.504898 1408.225235 0.399738 1.916331 -0.201599 0.334103 6.453202 0.767690 3.876031 -2.485547 0.000001 0.000001 3.567995 1.111930 -5.659034 -0.602602 -0.000008 0.000001 8.296399 -26.198487 14.286383 10.578647 -0.000002 0.000000 2.173898 -0.953603 -1.685308 -3.712052 1.927598 0.221405 6.048992 -12.333384 -1.384700 -10.305454 4.959702 -0.000002 0.000000 39.131766 -11.262358 -109.848280 0.000000 0.000003 -8.654200 58.841629 -2.656957 2.222875 -0.000005 -0.000003 -13.864096 990.750522 -161.698745 224.749451 -3.155707 -0.764996 6.687802 10.738230 -10.025798 85.403627 -3.592898 0.000003 0.000010 -39.346596 -48.446863 58.148617 -0.000004 0.000005 -10.352396 -71.735790 -104.448762 -37.434535 0.000002 0.000007 -12.750305 -625.205191 -7.001112 36.460315 2.460599 -0.518100 -2.735506 -13.136949 0.839153 -0.355346 -0.000005 -0.000000 -17.005901 -8.844491 6.913626 11.955339 -0.000011 0.000004 -19.194399 29.121994 21.090774 0.573841 -3.115495 -0.679601 -2.320298 -133.836437 -27.482176 -102.626488 -0.000007 -0.000006 -17.680389 -199.425746 -6.873046 -106.739471 0.000006 -0.000006 -16.993799 290.916936 30.351698 -52.993430
-32.130699 25.266901 45.496895 1408.221738 0.392899 1.868714 -0.201599 0.334098 6.453204 0.844955 3.748810 -2.461158 -0.000002 -0.000001 3.568002 1.049678 -5.609698 -0.605308 -0.000005 -0.000001 8.296402 -25.859001 14.271901 10.657453 -0.000006 -0.000001 2.173897 -0.908246 -1.698471 -3.603097 1.927600 0.221405 6.048997 -12.148052 -1.568599 -10.197219 4.959700 0.000002 -0.000000 38.883420 -11.244296 -109.838253 0.000003 -0.000005 -8.654200 58.797308 -2.639701 2.065679 0.000004 0.000002 -13.864106 990.340055 -161.795338 224.455043 -3.155704 -0.764995 6.687809 10.830379 -10.010940 85.472892 -3.592905 0.000005 -0.000002 -39.476099 -48.592315 58.080063 -0.000004 -0.000001 -10.352396 -72.304444 -104.321243 -37.806644 -0.000000 -0.000017 -12.750299 -624.693582 -8.073169 36.701202 2.460601 -0.518105 -2.735506 -13.247326 0.830654 -0.338734 -0.000005 -0.000006 -17.005905 -8.822915 6.864547 11.956898 -0.000008 -0.000000 -19.194403 29.160700 21.144165 0.603790 -3.115494 -0.679601 -2.320301 -133.619305 -27.860558 -102.063257 0.000001 -0.000011 -17.680397 -200.207079 -6.876681 -106.803764 0.000004 0.000003 -16.993799 291.069987 30.315385 -52.754937
-32.133698 25.276508 45.489998 1408.222394 0.387714 1.829025 -0.201600 0.334100 6.453197 0.908014 3.617117 -2.439037 -0.000004 0.000002 3.567998 0.985012 -5.559843 -0.608249 0.000004 0.000007 8.296387 -25.505316 14.267051 10.719231 -0.000003 -0.000000 2.173890 -0.869548 -1.707376 -3.492379 1.927607 0.221405 6.048991 -11.976478 -1.727297 -10.064141 4.959705 0.000004 0.000002 38.646112 -11.285721 -109.836538 -0.000006 0.000003 -8.654207 58.789480 -2.621901 1.909520 -0.000002 0.000006 -13.864100 989.879427 -161.913773 224.144788 -3.155704 -0.764991 6.687800 10.927401 -9.985615 85.519310 -3.592906 0.000003 0.000006 -39.658524 -48.818675 57.999863 0.000006 0.000001 -10.352404 -72.745094 -104.170220 -38.126000 0.000007 -0.000005 -12.750297 -624.125747 -9.109625 36.972043 2.460602 -0.518102 -2.735499 -13.371380 0.845206 -0.347932 -0.000005 -0.000001 -17.005898 -8.668161 6.799882 11.978783 -0.000013 0.000003 -19.194395 29.115344 21.210324 0.599732 -3.115495 -0.679605 -2.320295 -133.382161 -28.262549 -101.443486 -0.000010 -0.000011 -17.680395 -201.029338 -6.915633 -106.839110 0.000006 -0.000007 -16.993797 291.172084 30.305440 -52.486251
-32.137699 25.286404 45.484592 1408.234087 0.381191 1.791079 -0.201601 0.334097 6.453198 0.955688 3.488521 -2.409522 0.000002 0.000006 3.567995 0.922472 -5.514219 -0.611298 0.000004 0.000007 8.296402 -25.145987 14.273226 10.765756 -0.000003 0.000006 2.173907 -0.834825 -1.718826 -3.396099 1.927601 0.221407 6.049002 -11.862329 -1.826053 -9.862806 4.959706 0.000002 -0.000007 38.462107 -11.406344 -109.853607 0.000000 -0.000001 -8.654200 58.712012 -2.611650 1.736471 -0.000006 0.000003 -13.864100 989.492456 -162.021144 223.812513 -3.155708 -0.764995 6.687813 11.022417 -9.924969 85.550155 -3.592901 0.000002 0.000004 -39.766929 -49.006727 57.993326 -0.000004 -0.000004 -10.352394 -73.393709 -104.127709 -38.903583 0.000000 -0.000008 -12.750294 -624.255521 -9.101191 36.915110 2.460597 -0.518102 -2.735506 -13.521480 0.888197 -0.378277 -0.000003 0.000000 -17.005901 -8.350463 6.716102 12.017200 -0.000004 0.000007 -19.194401 28.965521 21.304987 0.563640 -3.115498 -0.679602 -2.320302 -133.131397 -28.692945 -100.773793 -0.000001 -0.000005 -17.680397 -201.895351 -6.948669 -106.853173 0.000005 -0.000004 -16.993795 291.255222 30.318434 -52.227352
-32.142700 25.296005 45.480991 1408.251463 0.371846 1.749694 -0.201602 0.334097 6.453207 1.006326 3.366246 -2.367965 -0.000002 -0.000000 3.567989 0.852383 -5.466618 -0.615298 -0.000003 0.000000 8.296392 -24.779752 14.283571 10.793610 -0.000003 -0.000001 2.173897 -0.802056 -1.730713 -3.311270 1.927596 0.221406 6.048997 -11.753270 -1.926709 -9.630073 4.959702 0.000002 0.000003 38.309356 -11.478119 -109.894820 0.000000 -0.000004 -8.654202 58.791919 -2.600354 1.582840 -0.000001 0.000002 -13.864091 989.015872 -162.135673 223.449912 -3.155702 -0.764992 6.687799 11.112111 -9.905264 85.582769 -3.592906 -0.000002 -0.000002 -39.879709 -49.230501 57.970910 -0.000002 -0.000007 -10.352384 -73.938143 -104.078498 -39.615254 0.000000 0.000010 -12.750305 -624.361143 -9.081046 36.842607 2.460602 -0.518099 -2.735506 -13.685123 0.959342 -0.416608 0.000002 -0.000002 -17.005899 -7.924319 6.617408 12.064406 -0.000003 0.000003 -19.194399 28.734059 21.406171 0.507869 -3.115499 -0.679605 -2.320303 -132.855854 -29.157111 -100.066069 -0.000001 -0.000006 -17.680393 -202.783754 -6.968516 -106.879169 -0.000000 -0.000001 -16.993792 291.346063 30.273656 -52.037712
